HIERARCHY
ROOT Hips
{
  OFFSET 74.0196 97.4445 -31.1285
  CHANNELS 6 Xposition Yposition Zposition Zrotation Xrotation Yrotation
  JOINT RightUpLeg
  {
    OFFSET -8.9458 -8.66707 0.101652
    CHANNELS 3 Zrotation Xrotation Yrotation
    JOINT RightLeg
    {
      OFFSET -2.94875e-013 -44.4227 1.3727
      CHANNELS 3 Zrotation Xrotation Yrotation
      JOINT RightFoot
      {
        OFFSET 0.253549 -42.0924 -1.46059
        CHANNELS 3 Zrotation Xrotation Yrotation
        JOINT RightToes
        {
          OFFSET 0.04 -4.41509 8.4991
          CHANNELS 3 Zrotation Xrotation Yrotation
          End Site
          {
            OFFSET -0.08 -0.137448 9.77979
          }
        }
      }
    }
  }
  JOINT Spine
  {
    OFFSET -5.68434e-014 11.8905 -6.39488e-014
    CHANNELS 3 Zrotation Xrotation Yrotation
    JOINT Spine1
    {
      OFFSET 5.68434e-014 25.6574 0.127663
      CHANNELS 3 Zrotation Xrotation Yrotation
      JOINT HEad
      {
        OFFSET 4.26326e-014 8.73416 0.011341
        CHANNELS 3 Zrotation Xrotation Yrotation
        End Site
        {
          OFFSET -0.29 12.7742 2.51395
        }
      }
      JOINT LeftShoulder1
      {
        OFFSET 8.99 -0.362252 -0.22
        CHANNELS 3 Zrotation Xrotation Yrotation
        JOINT LeftArm
        {
          OFFSET 10.2827 -0.00338 0.322123
          CHANNELS 3 Zrotation Xrotation Yrotation
          JOINT LeftForeArm
          {
            OFFSET 32.7669 0.099144 -1.42434
            CHANNELS 3 Zrotation Xrotation Yrotation
            JOINT LeftHand
            {
              OFFSET 27.5643 0.085362 1.02216
              CHANNELS 3 Zrotation Xrotation Yrotation
              End Site
              {
                OFFSET 16.7443 -0.6 1.50291
              }
            }
          }
        }
      }
      JOINT RightShoulder
      {
        OFFSET -8.99 -0.362252 -0.22
        CHANNELS 3 Zrotation Xrotation Yrotation
        JOINT RightArm
        {
          OFFSET -10.2827 -0.00338 0.322123
          CHANNELS 3 Zrotation Xrotation Yrotation
          JOINT RightForeArm
          {
            OFFSET -32.8971 0.099144 -1.42434
            CHANNELS 3 Zrotation Xrotation Yrotation
            JOINT RightHand
            {
              OFFSET -27.4921 0.085362 1.02216
              CHANNELS 3 Zrotation Xrotation Yrotation
              End Site
              {
                OFFSET -16.6312 -0.6 1.50291
              }
            }
          }
        }
      }
    }
  }
  JOINT LeftUpLeg
  {
    OFFSET 8.9458 -8.66707 0.101652
    CHANNELS 3 Zrotation Xrotation Yrotation
    JOINT LeftLeg
    {
      OFFSET 7.10543e-014 -44.4227 1.3727
      CHANNELS 3 Zrotation Xrotation Yrotation
      JOINT LeftFoot
      {
        OFFSET -0.253549 -42.0924 -1.46059
        CHANNELS 3 Zrotation Xrotation Yrotation
        JOINT LeftToes
        {
          OFFSET -0.04 -4.41509 8.4991
          CHANNELS 3 Zrotation Xrotation Yrotation
          End Site
          {
            OFFSET 0.08 -0.047448 9.77979
          }
        }
      }
    }
  }
}
MOTION
Frames:	7
Frame Time:	0.0166667
57.485 81.7463 -68.2053 -0.257016 -3.43317 -7.17215 -25.9583 -35.5992 10.8066 -2.75592 40.8225 2.00334 7.74259 31.7908 -2.58746 -20.4387 -50.7985 -9.07645 -2.94643 9.76583 -1.46422 -13.3127 18.7948 -1.13594 10.8181 3.80921 -4.50228 -5.03302e-021 -3.88251e-019 1.21329e-020 -60.3105 -3.86575 -50.998 -10.463 40.1974 -114.773 6.54677 9.62745 -1.04006 27.0115 -4.88687 -19.201 42.4968 -5.1494 3.99316 18.7478 20.1697 81.5545 -30.2768 -3.3791 43.0973 37.3201 -6.13475 -11.7685 -27.3005 33.8277 36.7731 -3.05145 21.1222 0.621028 42.1445 -43.8419 37.5673 
60.2594 82.0823 -67.6472 -0.688241 -3.65128 -13.6709 -21.9881 -40.3124 9.19393 -3.6901 43.6145 4.47959 9.96826 31.008 -3.29377 -19.0449 -52.2057 -6.42225 -2.29087 9.56335 -2.13449 -12.484 18.1104 -2.61937 9.14577 5.48588 1.20915 -5.03302e-021 -3.88251e-019 1.21329e-020 -60.5865 -8.81781 -54.2297 -12.3834 40.0526 -108.299 6.54677 9.62745 -1.04006 26.2295 -4.38311 -17.886 42.5203 -13.9055 8.54547 14.6244 33.9162 89.8437 -30.8397 -1.75671 37.1426 34.9765 -2.5611 -12.1325 -28.2506 34.9048 40.9398 -1.01639 20.327 0.109453 45.6239 -45.3964 40.4451 
62.7375 82.3471 -66.9292 -1.3158 -3.39188 -18.9896 -17.7089 -44.2279 7.2155 -4.09416 46.9524 6.77343 12.1915 28.2675 -3.7688 -17.645 -52.8323 -4.15585 -1.50097 9.32163 -3.2162 -11.2121 17.4449 -4.97284 6.98051 7.30477 7.62192 -5.03302e-021 -3.88251e-019 1.21329e-020 -60.7282 -13.5099 -58.4898 -13.875 38.2567 -99.0454 6.54677 9.62745 -1.04006 25.4474 -3.88695 -16.5218 44.6214 -14.4405 15.2799 7.33305 36.9045 100.84 -30.0586 0.571554 30.341 32.682 0.034403 -12.6897 -28.456 35.8093 43.7298 0.655583 18.6107 -0.277063 48.2532 -46.4982 42.5696 
64.896 82.5052 -66.121 -1.97826 -2.62186 -22.8185 -13.8878 -47.1406 5.0071 -3.66147 50.2604 7.99431 13.4749 24.1247 -3.70564 -15.7792 -51.9181 -1.8843 -0.619885 9.05441 -4.76735 -9.52677 16.8385 -8.23947 4.39228 8.77795 14.4365 -5.03302e-021 -3.88251e-019 1.21329e-020 -54.6607 -14.6026 -63.3451 -12.2298 28.7628 -88.1152 6.54677 9.62745 -1.04006 24.7624 -3.48663 -15.3878 47.5797 -12.2285 23.1308 0.0601394 35.7325 110.637 -28.3979 2.79506 24.0947 30.8048 1.50726 -13.2463 -28.2546 36.6782 44.9933 1.90549 16.2966 -0.510057 50.0534 -47.2698 43.9427 
66.7729 82.6007 -65.2861 -2.57489 -1.44087 -25.172 -11.035 -49.0077 2.79055 -2.14286 52.7951 7.33134 13.3224 19.7475 -3.17795 -13.6619 -49.7672 0.322742 0.326297 8.80229 -6.69396 -7.48838 16.3338 -12.2354 1.56347 9.43975 21.1793 -5.03302e-021 -3.88251e-019 1.21329e-020 -38.0311 -12.121 -67.5873 -7.66983 9.74421 -73.2645 6.54677 9.62745 -1.04006 24.2159 -3.22685 -14.6667 50.9351 -8.61881 31.3194 -5.8723 32.8782 117.997 -26.5027 4.48228 19.2038 29.5824 1.9764 -13.6282 -27.9897 37.4834 44.911 2.80811 13.8916 -0.624869 51.2582 -47.7871 44.8352 
68.4507 82.7208 -64.4446 -3.06967 -0.031087 -26.3763 -9.2207 -49.9436 0.994757 0.363428 53.9982 4.73607 11.8721 16.2667 -2.49048 -11.9007 -47.2946 1.98924 1.35626 8.6237 -8.76181 -5.201 15.9614 -16.544 -1.22758 9.0228 27.2385 -5.03302e-021 -3.88251e-019 1.21329e-020 -18.3956 -10.4749 -70.2656 -1.96999 -8.27523 -52.2655 6.54677 9.62745 -1.04006 23.7717 -3.09532 -14.3655 54.1794 -3.8655 39.063 -10.1562 29.3677 122.98 -24.9131 5.57431 15.8424 29.019 1.71186 -13.6645 -27.9301 38.1857 43.8736 3.42697 11.912 -0.670136 52.2817 -48.163 45.6521 
70.0142 82.9311 -63.5695 -3.42772 1.37993 -26.9419 -8.25946 -50.1845 0.102966 3.35406 53.7785 1.01734 9.53745 14.1685 -1.84121 -10.91 -45.0966 2.65644 2.46169 8.55937 -10.6616 -2.85186 15.7273 -20.5711 -3.68697 7.60151 31.9959 -5.03302e-021 -3.88251e-019 1.21329e-020 -3.64734 -10.5605 -70.4738 3.20728 -16.1759 -30.2514 6.54677 9.62745 -1.04006 23.3389 -3.03411 -14.3244 57.0025 1.29914 45.7002 -12.8649 26.1272 126.204 -23.8127 6.229 13.6844 28.8725 1.03237 -13.2294 -28.23 38.8715 42.3137 3.74226 10.6953 -0.677085 53.5216 -48.5528 46.6985 
